# xmcd CD database file
#
# Track frame offsets:
#	150
#	11180
#	27885
#	39465
#	57747
#	78712
#	93800
#	104840
#	117230
#	127422
#	136422
#	146622
#	162252
#
# Disc length: 2394 seconds
#
# Revision: 2
# Processed by: cddbd v1.5.2PL0 Copyright (c) Steve Scherf et al.
# Submitted via: CDex 1.51
#
DISCID=c009580d
DTITLE=Mike Cross - HIGH POWERED, Low Flying
DYEAR=1994
DGENRE=Country
TTITLE0=Riding With Me
TTITLE1=Red Tailed Hawk
TTITLE2=Dead Willie Blues
TTITLE3=Boll Weevil/Tuttle's Reel
TTITLE4=Silver Harmonica
TTITLE5=Do What You Do
TTITLE6=T-Bird Blues (How In The World Did I Ever Get You?)
TTITLE7=The Time In Between (Patrick's Lullaby)
TTITLE8=McFadden's Reel/Master Crowley's
TTITLE9=Best Friend
TTITLE10=Gamblin' Fever
TTITLE11=Bad Blood
TTITLE12=An Old Woman's Garden
EXTD=YEAR: 1994
EXTT0=
EXTT1=
EXTT2=
EXTT3=
EXTT4=
EXTT5=
EXTT6=
EXTT7=
EXTT8=
EXTT9=
EXTT10=
EXTT11=
EXTT12=
PLAYORDER=
